<?xml version="1.0" encoding="UTF-8"?>
<svg width="400" height="400" version="1.1" viewBox="0 0 400 400" xmlns="http://www.w3.org/2000/svg">
 <rect width="400" height="400" fill="#f3f4f6"/>
 <g transform="matrix(1.3333 0 0 -1.3333 200 200)">
  <path d="m0 0c-33.334 0-60.417 27.083-60.417 60.416 0 33.334 27.083 60.417 60.417 60.417 33.333 0 60.416-27.083 60.416-60.417 0-33.333-27.083-60.416-60.416-60.416zm0 145.83c-47.083 0-85.417-38.333-85.417-85.417 0-47.083 38.334-85.416 85.417-85.416 47.083 0 85.416 38.333 85.416 85.416 0 47.084-38.333 85.417-85.416 85.417" fill="#2563eb"/>
  <path d="m0-25c-13.785 0-25 11.215-25 25s11.215 25 25 25 25-11.215 25-25-11.215-25-25-25m0-35c33.137 0 60 26.863 60 60s-26.863 60-60 60-60-26.863-60-60 26.863-60 60-60" fill="#2563eb"/>
 </g>
</svg>
